<svg width="641" height="251" viewBox="0 0 641 251" fill="none" xmlns="http://www.w3.org/2000/svg">
<path fill-rule="evenodd" clip-rule="evenodd" d="M136.224 37.8348C135.467 39.0078 135.458 39.0317 135.261 40.3477C135.144 41.1284 134.986 41.7067 134.801 42.0383C134.646 42.3155 134.468 42.8357 134.404 43.1943C134.341 43.5527 134.239 44.1383 134.178 44.4954C134.117 44.8526 133.934 45.4211 133.771 45.7587C133.609 46.0963 133.423 46.7109 133.359 47.1244C133.212 48.0683 132.934 49.0683 132.728 49.3884C132.642 49.5233 132.487 50.0933 132.383 50.655C132.28 51.2166 132.041 51.9973 131.853 52.3899C131.664 52.7825 131.457 53.4561 131.394 53.8868C131.25 54.8616 131.084 55.4181 130.861 55.6732C130.767 55.7818 130.591 56.3518 130.471 56.9399C130.35 57.528 130.102 58.3209 129.919 58.7017C129.736 59.0826 129.505 59.8193 129.407 60.3387C129.308 60.8581 129.092 61.5429 128.926 61.8604C128.733 62.2287 128.585 62.7618 128.516 63.3325C128.438 63.9841 128.287 64.4774 127.961 65.1484C127.689 65.7091 127.485 66.3214 127.441 66.7131C127.397 67.0967 127.208 67.6756 126.971 68.1459C126.753 68.5799 126.574 69.0696 126.574 69.2341C126.574 69.7318 126.237 70.8856 125.993 71.2207C125.868 71.394 125.683 71.938 125.584 72.4297C125.485 72.9215 125.255 73.6347 125.073 74.0147C124.891 74.3947 124.661 75.0898 124.563 75.5595C124.464 76.0292 124.274 76.5903 124.14 76.8065C124.007 77.0226 123.774 77.7006 123.623 78.313C123.472 78.9255 123.254 79.5562 123.139 79.7145C123.024 79.8728 122.81 80.3651 122.664 80.8084C122.519 81.2517 122.283 81.8217 122.139 82.075C121.996 82.3284 121.768 82.9449 121.633 83.4452C121.498 83.9454 121.292 84.4894 121.175 84.6542C121.058 84.8189 120.858 85.2905 120.731 85.7022C120.604 86.1138 120.346 86.7356 120.158 87.0839C119.97 87.4323 119.756 87.9672 119.682 88.2726C119.608 88.5781 119.397 89.0963 119.213 89.4241C119.029 89.752 118.817 90.2793 118.741 90.5959C118.666 90.9126 118.457 91.4152 118.278 91.7127C118.099 92.0104 117.87 92.5752 117.768 92.968C117.666 93.3607 117.455 93.8685 117.299 94.0965C117.143 94.3244 116.906 94.8737 116.771 95.317C116.637 95.7603 116.406 96.303 116.258 96.5229C116.11 96.7428 115.903 97.1833 115.797 97.5017C115.692 97.82 115.486 98.262 115.34 98.4836C115.194 98.7054 114.968 99.1977 114.838 99.5775C114.708 99.9575 114.455 100.476 114.276 100.729C114.097 100.982 113.914 101.345 113.87 101.535C113.788 101.888 113.238 103.142 112.354 104.989C112.081 105.559 111.642 106.492 111.378 107.062C111.113 107.632 110.777 108.332 110.629 108.616C110.481 108.901 110.201 109.471 110.006 109.883C109.812 110.295 109.577 110.761 109.484 110.919C109.392 111.078 109.236 111.389 109.137 111.61C109.038 111.832 108.827 112.247 108.669 112.532C108.51 112.816 108.227 113.386 108.038 113.798C107.85 114.21 107.625 114.676 107.538 114.834C107.451 114.993 107 115.874 106.536 116.792C106.072 117.71 105.523 118.731 105.316 119.061C105.109 119.39 104.94 119.704 104.94 119.757C104.94 119.811 104.74 120.163 104.496 120.54C104.252 120.917 104.012 121.355 103.964 121.513C103.915 121.671 103.696 122.046 103.478 122.347C103.259 122.647 103.032 123.068 102.973 123.282C102.914 123.497 102.685 123.899 102.465 124.176C102.245 124.453 102.005 124.861 101.933 125.083C101.815 125.444 101.439 126.083 101.256 126.234C101.218 126.266 101.118 126.473 101.033 126.695C100.948 126.916 100.737 127.281 100.565 127.505C100.392 127.729 100.113 128.184 99.9439 128.518C99.7752 128.851 99.5644 129.152 99.4754 129.186C99.3864 129.22 99.1784 129.602 99.0129 130.035C98.8474 130.469 98.632 130.89 98.5342 130.971C98.4364 131.052 98.2331 131.38 98.0827 131.699C97.5222 132.888 96.9831 133.785 96.6605 134.065C96.4776 134.223 96.2163 134.638 96.0796 134.986C95.9429 135.334 95.6851 135.762 95.5067 135.937C95.3284 136.112 95.1478 136.397 95.1056 136.57C95.0633 136.744 94.8739 137.08 94.6845 137.318C94.4951 137.556 94.2606 137.945 94.1634 138.182C94.0662 138.419 93.8387 138.768 93.6578 138.958C93.4769 139.148 93.2504 139.491 93.1547 139.721C93.0588 139.951 92.855 140.288 92.7016 140.471C92.5483 140.653 92.3456 140.987 92.2511 141.214C92.1565 141.44 91.9443 141.731 91.7793 141.861C91.6144 141.991 91.3717 142.349 91.2401 142.658C91.1085 142.966 90.8774 143.348 90.7267 143.506C90.5758 143.664 90.3766 143.975 90.2837 144.197C90.191 144.419 89.983 144.715 89.8215 144.855C89.66 144.995 89.3922 145.377 89.2265 145.705C89.0607 146.032 88.8218 146.41 88.6955 146.544C88.5693 146.678 88.3921 146.963 88.3018 147.178C88.2114 147.392 87.9565 147.768 87.7354 148.013C87.5142 148.258 87.3332 148.508 87.3332 148.569C87.3332 148.63 87.1807 148.854 86.9942 149.066C86.8079 149.278 86.536 149.662 86.3901 149.918C86.2442 150.174 85.8786 150.741 85.5775 151.177C85.0979 151.871 84.8352 152.223 84.0392 153.236C83.9396 153.363 83.7219 153.674 83.5555 153.927C83.389 154.18 83.1405 154.497 83.0033 154.63C82.8661 154.764 82.6211 155.083 82.4588 155.34C82.2967 155.597 82.1096 155.841 82.0429 155.882C81.9763 155.924 81.7419 156.226 81.5221 156.554C80.5335 158.03 79.814 158.956 79.0764 159.7C78.8074 159.972 78.5873 160.244 78.5873 160.305C78.5873 160.366 78.5206 160.485 78.4388 160.569C78.3573 160.652 77.9559 161.155 77.547 161.685C76.4717 163.08 76.2576 163.349 75.9757 163.663C75.6837 163.989 74.706 165.157 74.5832 165.327C74.488 165.458 73.7818 166.37 73.5239 166.694C72.2142 168.34 72.2254 168.328 69.7474 170.998C68.2608 172.6 68.02 172.87 67.6718 173.321C67.5043 173.538 66.7976 174.303 66.1014 175.022C65.4052 175.74 64.5508 176.639 64.2027 177.02C63.404 177.894 62.3576 178.971 62.0667 179.219C61.9439 179.323 61.7367 179.531 61.606 179.68C61.4754 179.828 61.281 180.028 61.1738 180.123C61.0667 180.218 60.8042 180.477 60.5904 180.699C60.3766 180.92 60.131 181.168 60.0445 181.249C59.8332 181.446 57.9942 183.36 57.6843 183.706C57.3336 184.097 55.7345 185.628 55.054 186.224C54.7376 186.501 53.5187 187.652 52.3452 188.781C51.1719 189.91 50.0844 190.919 49.9286 191.022C49.7729 191.126 49.4641 191.382 49.2426 191.591C49.0211 191.799 48.3997 192.387 47.8617 192.896C47.3237 193.406 46.8428 193.823 46.793 193.824C46.7431 193.825 46.4715 194.046 46.1892 194.315C45.9069 194.584 45.4298 195.019 45.129 195.282C44.8281 195.544 44.1159 196.166 43.5463 196.664C42.9767 197.162 42.2905 197.719 42.0215 197.901C41.7525 198.083 41.5325 198.273 41.5325 198.323C41.5325 198.372 41.3383 198.529 41.1009 198.671C40.6746 198.926 40.4147 199.146 39.3398 200.159C38.5498 200.903 37.7607 201.575 37.5308 201.699C37.4216 201.758 37.1172 201.992 36.8545 202.22C36.0949 202.879 35.4081 203.43 34.9731 203.729C34.7515 203.882 34.5024 204.1 34.4194 204.214C34.3365 204.327 34.1034 204.503 33.9016 204.604C33.6997 204.705 33.3792 204.94 33.1894 205.127C32.9995 205.314 32.4557 205.745 31.9811 206.085C30.8205 206.916 30.0903 207.501 29.5834 208.005C29.3514 208.236 28.9996 208.506 28.8016 208.605C28.6035 208.705 28.4133 208.86 28.3788 208.95C28.3444 209.04 28.0369 209.273 27.6956 209.468C27.3543 209.664 26.9749 209.935 26.8525 210.07C26.7301 210.205 26.4365 210.415 26.2002 210.536C25.9637 210.656 25.6871 210.882 25.5856 211.037C25.4841 211.192 25.3007 211.351 25.1782 211.39C25.0555 211.429 24.7204 211.664 24.4334 211.912C24.1465 212.161 23.8693 212.364 23.8175 212.364C23.7656 212.364 23.4231 212.597 23.0564 212.882C22.6895 213.167 22.3168 213.401 22.2279 213.401C22.1391 213.401 21.8674 213.595 21.6241 213.832C21.3808 214.07 20.9949 214.394 20.7663 214.552C20.5379 214.71 19.9302 215.164 19.4158 215.56C18.9014 215.955 18.4182 216.279 18.342 216.279C18.2658 216.279 18.0022 216.44 17.7561 216.636C17.51 216.833 17.0621 217.119 16.7606 217.272C16.4591 217.426 16.076 217.704 15.9094 217.892C15.7428 218.079 15.4974 218.266 15.3643 218.308C15.2311 218.351 14.9151 218.552 14.6619 218.757C14.4088 218.962 14.0204 219.221 13.7989 219.334C13.5773 219.446 13.189 219.713 12.9358 219.926C12.1794 220.562 10.9004 221.461 10.7514 221.461C10.675 221.461 10.5139 221.57 10.3934 221.703C10.273 221.836 10.0387 222.015 9.87278 222.101C9.70684 222.187 9.29866 222.49 8.96563 222.774C8.6326 223.059 8.21026 223.324 8.02717 223.365C7.84409 223.405 7.55306 223.556 7.38056 223.701C7.20806 223.845 6.80011 224.127 6.47409 224.327C6.14797 224.527 5.79986 224.815 5.70032 224.967C5.60089 225.119 5.40158 225.279 5.2575 225.323C4.91503 225.427 3.21453 226.552 2.93881 226.857C2.82086 226.987 2.48391 227.173 2.19 227.271C1.8961 227.369 1.50541 227.591 1.32186 227.765C1.1382 227.939 0.77628 228.186 0.517587 228.313C0.0786828 228.529 0.0448501 228.58 0.0125134 229.08C-0.0215494 229.606 -0.0147599 229.617 0.415283 229.769C1.14729 230.029 4.02537 229.973 5.80101 229.665C7.00725 229.456 8.06596 229.383 11.2672 229.287C16.6256 229.126 18.2153 229.01 19.7829 228.662C20.6874 228.462 21.8712 228.318 23.5229 228.208C25.6617 228.065 26.0586 228.006 26.9752 227.696C27.7989 227.418 28.3507 227.321 29.6707 227.222C31.249 227.104 31.7919 226.999 33.2469 226.528C33.595 226.415 34.4236 226.287 35.0881 226.242C36.0523 226.177 36.497 226.084 37.2888 225.779C37.8346 225.568 38.689 225.335 39.1875 225.261C39.6862 225.186 40.4804 224.972 40.9526 224.784C41.4249 224.596 42.2275 224.385 42.7363 224.316C43.2468 224.246 43.982 224.047 44.3768 223.871C44.7703 223.695 45.3917 223.492 45.7577 223.419C46.1238 223.345 46.8922 223.112 47.4653 222.901C48.0383 222.689 48.7115 222.481 48.9613 222.438C49.5523 222.337 50.6734 221.95 51.128 221.691C51.3253 221.578 51.6905 221.451 51.9397 221.407C52.1888 221.363 52.7758 221.124 53.2441 220.876C53.7123 220.628 54.1701 220.425 54.2615 220.425C54.3527 220.425 54.9942 220.165 55.6869 219.849C56.3797 219.532 57.0734 219.273 57.2285 219.273C57.3836 219.273 57.6573 219.149 57.8368 218.998C58.1984 218.694 58.9451 218.352 59.2481 218.352C59.3558 218.352 59.6882 218.178 59.9867 217.966C60.2852 217.753 60.7475 217.511 61.0139 217.428C61.2804 217.344 61.6581 217.159 61.8531 217.017C62.1832 216.776 64.0471 215.801 65.2383 215.246C65.5232 215.114 66.0151 214.853 66.3316 214.666C66.648 214.48 66.9779 214.326 67.0644 214.324C67.1509 214.323 67.4062 214.16 67.6314 213.962C67.8567 213.764 68.2001 213.535 68.3946 213.453C68.589 213.371 68.9553 213.157 69.2085 212.976C69.4617 212.795 69.8208 212.581 70.0067 212.499C70.1925 212.417 70.5375 212.197 70.7733 212.01C71.0091 211.823 71.386 211.593 71.6107 211.499C71.8355 211.405 72.1896 211.18 72.3976 210.998C72.6057 210.816 73.038 210.535 73.3585 210.373C73.6789 210.212 74.0126 209.993 74.1 209.888C74.1874 209.782 74.4569 209.617 74.6991 209.52C74.9412 209.423 75.2308 209.227 75.3428 209.085C75.4547 208.942 75.7158 208.738 75.9229 208.631C76.1301 208.524 76.4906 208.264 76.7242 208.053C76.9577 207.842 77.3452 207.588 77.5851 207.488C77.9925 207.318 78.5644 206.89 79.4321 206.106C79.632 205.925 79.987 205.679 80.2209 205.56C80.4549 205.44 80.6879 205.275 80.7388 205.193C80.7896 205.111 81.0994 204.85 81.427 204.613C81.7548 204.376 82.0396 204.142 82.06 204.094C82.0805 204.046 82.3432 203.832 82.6438 203.618C82.9443 203.404 83.1904 203.184 83.1904 203.13C83.1904 203.076 83.4105 202.89 83.6795 202.717C83.9484 202.543 84.3498 202.234 84.5713 202.03C84.7928 201.825 85.1966 201.463 85.4687 201.225C85.7407 200.987 86.1558 200.611 86.3911 200.389C86.6264 200.167 87.0252 199.832 87.2775 199.643C87.5296 199.455 88.4868 198.57 89.4045 197.676C90.3223 196.782 91.4098 195.735 91.8212 195.348C94.0506 193.253 100.835 186.27 102.355 184.506C102.543 184.289 103.01 183.764 103.393 183.341C103.777 182.917 104.373 182.206 104.717 181.761C105.061 181.316 105.886 180.295 106.551 179.494C107.216 178.692 107.879 177.871 108.026 177.669C108.172 177.467 108.613 176.944 109.004 176.507C109.395 176.07 109.742 175.65 109.773 175.574C109.805 175.498 109.974 175.26 110.15 175.045C110.917 174.103 112.086 172.667 112.347 172.345C112.504 172.153 112.92 171.566 113.272 171.042C113.625 170.519 114.095 169.868 114.318 169.596C114.54 169.324 114.839 168.942 114.981 168.748C115.123 168.553 115.568 167.962 115.97 167.436C116.372 166.909 116.777 166.331 116.871 166.15C116.964 165.97 117.218 165.667 117.435 165.476C117.651 165.286 117.829 165.066 117.829 164.987C117.829 164.908 117.937 164.746 118.069 164.627C118.201 164.507 118.689 163.838 119.154 163.139C119.619 162.441 120.132 161.745 120.295 161.592C120.457 161.439 120.59 161.252 120.59 161.176C120.59 161.101 120.787 160.786 121.028 160.477C121.268 160.168 121.561 159.694 121.678 159.425C121.796 159.155 121.966 158.873 122.056 158.799C122.146 158.724 122.344 158.417 122.496 158.117C122.648 157.817 122.908 157.425 123.074 157.246C123.24 157.067 123.502 156.672 123.657 156.368C123.811 156.065 124.015 155.786 124.111 155.749C124.206 155.713 124.438 155.378 124.626 155.006C124.813 154.634 125.017 154.33 125.078 154.33C125.14 154.33 125.347 154.019 125.539 153.639C125.73 153.259 125.941 152.948 126.007 152.948C126.072 152.948 126.284 152.611 126.477 152.199C126.669 151.787 126.893 151.412 126.973 151.364C127.054 151.317 127.236 151.045 127.378 150.76C127.519 150.475 127.761 150.108 127.915 149.943C128.069 149.779 128.335 149.39 128.506 149.078C128.976 148.227 129.241 147.791 129.647 147.205C129.85 146.912 130.166 146.388 130.348 146.039C130.734 145.305 131.383 144.296 131.801 143.782C131.961 143.585 132.193 143.196 132.316 142.918C132.439 142.64 132.68 142.257 132.851 142.067C133.022 141.877 133.233 141.557 133.319 141.355C133.405 141.154 133.709 140.655 133.995 140.245C134.281 139.836 134.515 139.452 134.515 139.391C134.515 139.331 134.617 139.188 134.743 139.075C134.868 138.961 135.159 138.487 135.389 138.021C135.62 137.555 135.841 137.173 135.881 137.172C135.921 137.172 136.145 136.996 136.378 136.781L136.803 136.391L137.341 136.58C137.776 136.734 137.964 136.895 138.325 137.425C138.571 137.785 138.817 138.108 138.873 138.143C138.929 138.177 139.092 138.504 139.237 138.869C139.381 139.235 139.609 139.689 139.743 139.879C139.877 140.069 140.135 140.523 140.315 140.889C140.496 141.255 140.694 141.585 140.756 141.623C140.818 141.661 140.955 141.88 141.062 142.11C141.168 142.339 141.499 142.899 141.798 143.354C142.096 143.808 142.34 144.21 142.34 144.247C142.34 144.284 142.542 144.612 142.789 144.976C143.035 145.339 143.321 145.818 143.423 146.039C143.525 146.261 143.841 146.805 144.124 147.248C144.632 148.044 144.8 148.357 145.142 149.15C145.239 149.373 145.439 149.736 145.587 149.956C145.736 150.177 146.002 150.668 146.18 151.048C146.358 151.428 146.599 151.843 146.715 151.969C146.832 152.096 147.036 152.453 147.168 152.762C147.3 153.071 147.563 153.519 147.751 153.757C147.94 153.996 148.094 154.242 148.094 154.305C148.094 154.415 148.996 155.843 149.671 156.802C149.848 157.054 150.05 157.391 150.12 157.551C150.19 157.711 150.439 158.071 150.674 158.351C150.908 158.63 151.169 158.993 151.254 159.157C151.338 159.321 151.522 159.558 151.662 159.685C151.802 159.811 152.01 160.096 152.124 160.318C152.238 160.539 152.427 160.824 152.543 160.951C152.659 161.078 152.876 161.445 153.025 161.768C153.174 162.091 153.445 162.497 153.629 162.67C153.813 162.844 153.963 163.054 153.963 163.137C153.963 163.22 154.141 163.444 154.359 163.636C154.577 163.827 154.882 164.234 155.037 164.54C155.192 164.846 155.434 165.2 155.574 165.327C155.714 165.453 155.929 165.754 156.052 165.994C156.174 166.235 156.352 166.461 156.447 166.498C156.542 166.534 156.722 166.766 156.848 167.013C156.974 167.26 157.282 167.732 157.533 168.064C157.784 168.395 157.99 168.729 157.99 168.806C157.99 168.884 158.151 169.065 158.347 169.209C158.543 169.354 158.782 169.627 158.878 169.817C158.974 170.007 159.178 170.292 159.331 170.451C159.946 171.087 160.648 171.977 160.854 172.382C160.975 172.618 161.184 172.912 161.321 173.035C161.457 173.158 161.703 173.508 161.869 173.812C162.034 174.117 162.209 174.366 162.256 174.366C162.303 174.366 162.476 174.595 162.64 174.876C162.805 175.156 163.03 175.476 163.14 175.587C163.251 175.698 163.485 175.973 163.66 176.2C164.104 176.773 164.65 177.409 165.13 177.912C165.354 178.146 165.634 178.494 165.752 178.684C165.87 178.874 166.039 179.072 166.127 179.124C166.215 179.176 166.452 179.442 166.655 179.715C167.775 181.223 169.591 183.277 172.791 186.654C173.557 187.464 174.324 188.292 174.495 188.496C174.881 188.956 180.85 194.949 181.239 195.267C181.396 195.395 181.75 195.757 182.026 196.071C182.302 196.385 182.691 196.741 182.889 196.86C183.247 197.077 183.77 197.541 184.261 198.077C184.401 198.23 184.609 198.438 184.724 198.537C184.838 198.638 185.164 198.939 185.448 199.209C185.732 199.478 186.01 199.698 186.065 199.698C186.121 199.698 186.276 199.877 186.411 200.095C186.546 200.314 186.761 200.525 186.888 200.566C187.016 200.606 187.367 200.855 187.668 201.119C188.221 201.603 188.968 202.165 189.76 202.692C190.227 203.003 191.233 203.808 191.42 204.02C191.692 204.328 193.289 205.608 193.606 205.772C193.796 205.87 194.02 206.047 194.104 206.165C194.187 206.283 194.452 206.48 194.694 206.604C194.935 206.727 195.161 206.903 195.197 206.996C195.232 207.089 195.51 207.307 195.815 207.482C196.12 207.656 196.609 207.971 196.902 208.182C197.195 208.392 197.489 208.564 197.555 208.564C197.621 208.564 197.822 208.739 198 208.952C198.179 209.166 198.584 209.454 198.9 209.592C199.217 209.73 199.605 209.965 199.764 210.114C199.922 210.263 200.237 210.48 200.465 210.597C200.915 210.829 202.296 211.749 202.756 212.124C202.914 212.253 203.1 212.36 203.17 212.362C203.24 212.363 203.651 212.597 204.084 212.882C204.517 213.166 204.978 213.433 205.108 213.473C205.238 213.514 205.565 213.699 205.835 213.883C206.105 214.068 206.493 214.275 206.698 214.343C206.903 214.41 207.252 214.606 207.474 214.779C207.93 215.134 208.55 215.473 208.742 215.473C208.813 215.473 209.101 215.632 209.384 215.826C209.666 216.021 210.167 216.288 210.498 216.422C210.828 216.555 211.202 216.753 211.329 216.862C211.617 217.109 212.478 217.546 212.678 217.546C212.761 217.546 213.012 217.67 213.235 217.822C213.458 217.974 214.001 218.207 214.441 218.34C214.881 218.473 215.469 218.738 215.748 218.928C216.026 219.118 216.344 219.273 216.453 219.273C216.717 219.273 217.442 219.581 217.817 219.852C218.109 220.063 218.788 220.316 219.499 220.478C219.689 220.522 220.103 220.716 220.42 220.911C220.736 221.105 221.3 221.335 221.672 221.422C222.044 221.509 222.743 221.753 223.226 221.965C223.708 222.176 224.361 222.387 224.678 222.432C224.994 222.478 225.408 222.604 225.598 222.712C226.142 223.023 226.925 223.279 227.592 223.364C227.929 223.407 228.55 223.615 228.973 223.827C229.535 224.108 230.012 224.245 230.752 224.337C231.488 224.428 231.937 224.556 232.398 224.806C232.904 225.08 233.269 225.174 234.193 225.268C234.831 225.334 235.566 225.465 235.827 225.561C237.178 226.054 237.687 226.169 239.021 226.284C240.111 226.378 240.722 226.497 241.464 226.759C242.221 227.026 242.784 227.134 243.865 227.216C244.709 227.281 245.716 227.445 246.37 227.623C248.026 228.076 248.273 228.118 249.765 228.197C251.334 228.28 253.235 228.509 255.001 228.827C255.665 228.946 257.089 229.078 258.165 229.119C263.172 229.311 266.01 229.513 267.199 229.761C268.229 229.975 268.747 230.01 270.709 229.998C272.358 229.987 273.141 229.937 273.47 229.821C273.906 229.668 273.933 229.631 273.965 229.141L274 228.622L273.332 228.317C272.965 228.149 272.535 227.887 272.377 227.736C272.219 227.585 271.882 227.375 271.629 227.271C271.376 227.167 271.033 226.953 270.866 226.796C270.493 226.444 269.364 225.748 268.292 225.208C267.849 224.986 267.098 224.517 266.623 224.168C266.149 223.818 265.553 223.422 265.3 223.286C264.734 222.984 262.475 221.393 261.848 220.855C261.594 220.637 260.921 220.208 260.352 219.901C259.782 219.594 259.119 219.145 258.879 218.904C258.639 218.663 258.199 218.336 257.901 218.177C257.385 217.902 256.761 217.49 255.749 216.756C255.495 216.572 255.133 216.34 254.943 216.24C254.753 216.14 254.391 215.874 254.139 215.65C253.886 215.426 253.623 215.243 253.555 215.243C253.486 215.243 253.308 215.113 253.159 214.954C253.01 214.796 252.625 214.516 252.304 214.333C251.983 214.15 251.616 213.904 251.487 213.786C250.848 213.205 250.068 212.609 249.707 212.427C249.485 212.315 249.149 212.082 248.959 211.909C248.769 211.737 248.381 211.463 248.096 211.301C247.811 211.139 247.479 210.897 247.359 210.764C247.238 210.631 247.074 210.522 246.993 210.522C246.912 210.522 246.649 210.335 246.407 210.107C246.165 209.879 245.833 209.623 245.669 209.538C245.505 209.453 245.246 209.247 245.094 209.08C244.941 208.913 244.668 208.682 244.487 208.566C244.151 208.351 243.606 207.91 242.76 207.168C242.499 206.938 242.11 206.645 241.898 206.517C241.475 206.261 240.808 205.721 240.198 205.141C239.983 204.936 239.639 204.683 239.434 204.578C239.23 204.474 238.907 204.245 238.717 204.071C237.762 203.194 237.303 202.821 236.963 202.647C236.758 202.543 236.505 202.326 236.4 202.165C236.295 202.005 236.062 201.798 235.883 201.706C235.516 201.516 234.172 200.224 234.172 200.061C234.172 200.002 233.991 199.869 233.77 199.764C233.55 199.659 233.314 199.471 233.248 199.346C233.181 199.221 232.908 198.984 232.642 198.819C232.376 198.654 232.028 198.4 231.87 198.255C231.712 198.11 231.37 197.882 231.112 197.749C230.853 197.615 230.575 197.383 230.495 197.233C230.414 197.083 230.22 196.891 230.064 196.807C229.907 196.723 229.623 196.459 229.434 196.219C229.244 195.979 229.043 195.783 228.987 195.783C228.931 195.783 228.445 195.356 227.907 194.833C227.368 194.311 226.836 193.798 226.723 193.694C226.611 193.589 226.404 193.382 226.262 193.233C225.76 192.702 225.008 192.002 223.93 191.063C223.328 190.539 222.681 189.941 222.491 189.734C222.301 189.527 221.628 188.9 220.995 188.342C219.989 187.455 217.992 185.606 215.524 183.28C215.115 182.895 214.341 182.096 213.803 181.506C213.265 180.915 212.565 180.168 212.248 179.846C211.931 179.523 211.393 178.923 211.052 178.511C210.712 178.099 210.039 177.341 209.558 176.826C209.076 176.311 208.268 175.431 207.761 174.87C206.22 173.162 205.819 172.733 205.475 172.42C205.293 172.255 205.086 172.052 205.014 171.969C204.943 171.886 204.435 171.342 203.885 170.76C202.736 169.543 202.219 168.969 201.692 168.32C201.486 168.067 201.289 167.834 201.254 167.802C201.219 167.771 201.067 167.563 200.916 167.342C200.765 167.12 200.456 166.747 200.231 166.513C200.006 166.278 199.654 165.89 199.451 165.649C198.71 164.774 198.085 164.079 197.606 163.6C197.337 163.331 197.117 163.059 197.117 162.995C197.117 162.931 196.923 162.671 196.685 162.418C196.448 162.164 196.11 161.756 195.935 161.511C195.759 161.266 195.357 160.755 195.04 160.375C194.723 159.995 194.374 159.53 194.265 159.342C194.156 159.153 193.879 158.816 193.648 158.593C193.417 158.37 193.139 158.006 193.028 157.784C192.918 157.563 192.757 157.34 192.67 157.289C192.583 157.238 192.402 156.979 192.268 156.713C192.041 156.264 191.718 155.856 190.726 154.764C190.511 154.528 190.248 154.165 190.142 153.958C190.035 153.751 189.846 153.51 189.721 153.422C189.597 153.334 189.371 152.982 189.22 152.641C189.069 152.299 188.87 151.991 188.777 151.955C188.684 151.919 188.288 151.364 187.895 150.721C187.504 150.078 187.039 149.396 186.862 149.206C186.686 149.016 186.465 148.679 186.372 148.457C186.279 148.236 186.02 147.878 185.796 147.663C185.572 147.447 185.357 147.121 185.316 146.938C185.276 146.755 185.041 146.371 184.793 146.085C184.546 145.799 184.343 145.529 184.343 145.485C184.343 145.442 184.136 145.173 183.883 144.888C183.63 144.603 183.423 144.307 183.423 144.23C183.423 144.153 183.274 143.92 183.093 143.712C182.912 143.504 182.628 143.046 182.463 142.695C182.298 142.344 182.006 141.941 181.814 141.799C181.623 141.658 181.466 141.473 181.466 141.39C181.466 141.306 181.315 141.029 181.131 140.774C180.946 140.519 180.685 140.095 180.55 139.831C180.416 139.567 180.127 139.161 179.908 138.929C179.689 138.697 179.51 138.468 179.51 138.42C179.51 138.372 179.305 138.014 179.054 137.626C178.803 137.238 178.563 136.81 178.52 136.675C178.477 136.541 178.243 136.222 177.999 135.967C177.755 135.712 177.556 135.447 177.555 135.377C177.553 135.187 177.21 134.513 176.904 134.101C176.755 133.899 176.633 133.698 176.633 133.654C176.633 133.61 176.433 133.28 176.188 132.921C175.943 132.562 175.652 132.089 175.542 131.871C175.431 131.652 175.223 131.344 175.078 131.185C174.934 131.027 174.698 130.613 174.555 130.264C174.411 129.916 174.205 129.527 174.097 129.401C173.989 129.274 173.772 128.937 173.615 128.652C173.458 128.367 173.173 127.901 172.982 127.616C172.791 127.331 172.597 126.968 172.55 126.81C172.504 126.651 172.27 126.211 172.03 125.831C171.79 125.451 171.556 125.016 171.511 124.865C171.466 124.714 171.256 124.363 171.044 124.086C170.832 123.808 170.625 123.403 170.585 123.187C170.544 122.97 170.318 122.578 170.083 122.315C169.844 122.048 169.595 121.611 169.518 121.323C169.442 121.041 169.259 120.687 169.11 120.539C168.962 120.39 168.514 119.603 168.116 118.789C167.718 117.976 167.281 117.181 167.145 117.022C167.009 116.864 166.802 116.438 166.685 116.076C166.567 115.714 166.351 115.305 166.204 115.167C166.057 115.028 165.857 114.638 165.758 114.3C165.66 113.961 165.435 113.515 165.259 113.309C165.083 113.103 164.822 112.624 164.68 112.244C164.537 111.864 164.324 111.449 164.206 111.322C164.088 111.196 163.878 110.781 163.739 110.401C163.599 110.021 163.371 109.581 163.231 109.423C163.091 109.264 162.857 108.798 162.712 108.386C162.567 107.975 162.33 107.519 162.186 107.373C162.041 107.228 161.862 106.851 161.786 106.537C161.711 106.223 161.517 105.772 161.355 105.535C161.192 105.298 160.965 104.802 160.849 104.432C160.733 104.063 160.463 103.441 160.25 103.051C160.037 102.66 159.796 102.082 159.715 101.765C159.634 101.449 159.478 101.086 159.369 100.959C159.092 100.638 158.966 100.357 158.806 99.7012C158.73 99.3893 158.546 98.9895 158.397 98.8127C158.249 98.6361 157.989 98.0752 157.819 97.5664C157.65 97.0575 157.471 96.6412 157.421 96.6412C157.329 96.6412 157.065 95.8574 156.827 94.8746C156.753 94.5679 156.57 94.1724 156.422 93.9957C156.273 93.8188 156.068 93.3443 155.967 92.9411C155.866 92.5379 155.635 91.9748 155.455 91.6898C155.275 91.4048 155.042 90.783 154.936 90.3081C154.83 89.8331 154.652 89.3408 154.54 89.2142C154.242 88.8767 154.101 88.5631 153.961 87.9334C153.893 87.6246 153.709 87.177 153.552 86.9387C153.395 86.7006 153.162 86.0596 153.032 85.5141C152.903 84.9688 152.667 84.3266 152.509 84.087C152.35 83.8474 152.142 83.3518 152.047 82.9856C151.951 82.6194 151.718 82.013 151.529 81.638C151.34 81.263 151.132 80.638 151.066 80.249C151.001 79.8601 150.819 79.3419 150.661 79.0974C150.376 78.654 150.135 77.951 150.003 77.1729C149.964 76.9465 149.787 76.5318 149.609 76.2513C149.431 75.9707 149.22 75.4051 149.139 74.9943C149.058 74.5834 148.819 73.9099 148.608 73.4977C148.397 73.0854 148.189 72.5533 148.146 72.315C148.103 72.0768 148.022 71.8535 147.966 71.8189C147.91 71.7842 147.864 71.6464 147.864 71.5127C147.864 71.379 147.712 70.9286 147.527 70.5119C147.342 70.0952 147.103 69.3656 146.996 68.8907C146.889 68.4157 146.684 67.8198 146.541 67.5665C146.398 67.3131 146.244 66.9245 146.199 66.7029C146.11 66.2597 144.979 62.7243 144.634 61.8091C144.515 61.4924 144.36 60.9484 144.29 60.6C144.092 59.6124 143.93 59.0885 143.649 58.5274C143.507 58.2424 143.355 57.802 143.312 57.5486C143.153 56.6151 142.92 55.8636 142.689 55.5394C142.471 55.2323 142.329 54.7276 142.118 53.5054C142.073 53.2449 141.933 52.8563 141.807 52.6418C141.55 52.2035 141.255 51.3275 141.135 50.6461C141.091 50.3964 140.933 49.9495 140.783 49.6532C140.632 49.3556 140.43 48.6198 140.332 48.009C140.166 46.9788 139.903 46.0904 139.675 45.7913C139.567 45.6505 139.406 44.928 139.228 43.793C139.164 43.3838 139.019 42.8915 138.906 42.6991C138.617 42.2066 138.346 41.3491 138.146 40.2882C138.042 39.7352 137.858 39.2023 137.678 38.9292C137.514 38.682 137.277 38.1456 137.151 37.7373C137.025 37.329 136.885 36.9971 136.84 37C136.795 37.0028 136.518 37.3785 136.224 37.8348Z" fill="#F4F1EA"/>
<path d="M300.448 133V37.64H320.288V85.384L314.784 83.464L352.928 37.64H377.76L340 83.208L341.152 69.128L378.528 133H355.36L332.064 92.68L320.288 106.888V133H300.448ZM380.003 133L412.259 37.64H438.627L470.883 133H449.251L442.851 113.544H407.907L401.507 133H380.003ZM413.411 96.264H437.347L422.755 51.208H428.131L413.411 96.264ZM479.513 133V37.64H499.353V115.72H539.673V133H479.513ZM541.193 133L573.449 37.64H599.817L632.073 133H610.441L604.041 113.544H569.097L562.697 133H541.193ZM574.601 96.264H598.537L583.945 51.208H589.321L574.601 96.264Z" fill="#F4F1EA"/>
<path d="M323.866 231.128C319.417 231.128 315.343 230.313 311.646 228.684C307.949 226.992 304.815 224.705 302.246 221.822C299.677 218.939 297.828 215.712 296.7 212.14L304.69 208.85C306.382 213.362 308.889 216.84 312.21 219.284C315.594 221.665 319.542 222.856 324.054 222.856C326.811 222.856 329.224 222.417 331.292 221.54C333.36 220.663 334.958 219.441 336.086 217.874C337.277 216.245 337.872 214.365 337.872 212.234C337.872 209.289 337.026 206.97 335.334 205.278C333.705 203.523 331.292 202.207 328.096 201.33L315.218 197.382C310.142 195.815 306.257 193.34 303.562 189.956C300.867 186.572 299.52 182.687 299.52 178.3C299.52 174.477 300.429 171.125 302.246 168.242C304.126 165.297 306.695 163.009 309.954 161.38C313.275 159.688 317.035 158.842 321.234 158.842C325.433 158.842 329.224 159.594 332.608 161.098C336.055 162.602 338.969 164.639 341.35 167.208C343.731 169.715 345.486 172.597 346.614 175.856L338.718 179.146C337.214 175.198 334.958 172.221 331.95 170.216C328.942 168.148 325.401 167.114 321.328 167.114C318.821 167.114 316.597 167.553 314.654 168.43C312.774 169.245 311.301 170.467 310.236 172.096C309.233 173.663 308.732 175.543 308.732 177.736C308.732 180.305 309.547 182.593 311.176 184.598C312.805 186.603 315.281 188.139 318.602 189.204L330.352 192.682C335.867 194.374 340.034 196.787 342.854 199.92C345.674 203.053 347.084 206.939 347.084 211.576C347.084 215.399 346.081 218.783 344.076 221.728C342.133 224.673 339.407 226.992 335.898 228.684C332.451 230.313 328.441 231.128 323.866 231.128ZM371.852 230V168.43H352.864V159.97H399.864V168.43H381.158V230H371.852ZM433.183 231.128C428.107 231.128 423.595 230.063 419.647 227.932C415.762 225.801 412.722 222.887 410.529 219.19C408.398 215.43 407.333 211.169 407.333 206.406V159.97H416.639V206.218C416.639 209.414 417.328 212.265 418.707 214.772C420.148 217.216 422.091 219.127 424.535 220.506C427.042 221.885 429.924 222.574 433.183 222.574C436.442 222.574 439.293 221.885 441.737 220.506C444.244 219.127 446.186 217.216 447.565 214.772C449.006 212.265 449.727 209.414 449.727 206.218V159.97H459.033V206.406C459.033 211.169 457.936 215.43 455.743 219.19C453.612 222.887 450.604 225.801 446.719 227.932C442.834 230.063 438.322 231.128 433.183 231.128ZM473.232 230V159.97H496.168C503.249 159.97 509.422 161.411 514.686 164.294C519.95 167.177 524.023 171.25 526.906 176.514C529.789 181.715 531.23 187.857 531.23 194.938C531.23 201.957 529.789 208.098 526.906 213.362C524.023 218.626 519.95 222.731 514.686 225.676C509.422 228.559 503.249 230 496.168 230H473.232ZM482.444 221.54H496.262C501.463 221.54 505.944 220.443 509.704 218.25C513.527 216.057 516.472 212.986 518.54 209.038C520.608 205.027 521.642 200.327 521.642 194.938C521.642 189.486 520.577 184.786 518.446 180.838C516.378 176.89 513.433 173.851 509.61 171.72C505.85 169.527 501.401 168.43 496.262 168.43H482.444V221.54ZM541.966 230V159.97H551.178V230H541.966ZM599.275 231.128C594.324 231.128 589.687 230.251 585.363 228.496C581.039 226.679 577.248 224.141 573.989 220.882C570.793 217.623 568.286 213.801 566.469 209.414C564.652 204.965 563.743 200.139 563.743 194.938C563.743 189.674 564.652 184.849 566.469 180.462C568.286 176.075 570.793 172.253 573.989 168.994C577.248 165.735 581.008 163.229 585.269 161.474C589.593 159.719 594.262 158.842 599.275 158.842C604.288 158.842 608.926 159.751 613.187 161.568C617.511 163.323 621.271 165.829 624.467 169.088C627.726 172.284 630.264 176.075 632.081 180.462C633.961 184.849 634.901 189.674 634.901 194.938C634.901 200.139 633.961 204.965 632.081 209.414C630.264 213.801 627.726 217.623 624.467 220.882C621.271 224.141 617.511 226.679 613.187 228.496C608.926 230.251 604.288 231.128 599.275 231.128ZM599.275 222.574C603.16 222.574 606.701 221.885 609.897 220.506C613.093 219.065 615.85 217.091 618.169 214.584C620.55 212.015 622.368 209.069 623.621 205.748C624.937 202.364 625.595 198.761 625.595 194.938C625.595 191.115 624.937 187.543 623.621 184.222C622.368 180.901 620.55 177.987 618.169 175.48C615.85 172.911 613.093 170.937 609.897 169.558C606.701 168.117 603.16 167.396 599.275 167.396C595.452 167.396 591.943 168.117 588.747 169.558C585.551 170.937 582.762 172.911 580.381 175.48C578.062 177.987 576.245 180.901 574.929 184.222C573.613 187.543 572.955 191.115 572.955 194.938C572.955 198.761 573.613 202.364 574.929 205.748C576.245 209.069 578.062 212.015 580.381 214.584C582.762 217.091 585.551 219.065 588.747 220.506C591.943 221.885 595.452 222.574 599.275 222.574Z" fill="#C7A31F"/>
</svg>
